<svg xmlns="http://www.w3.org/2000/svg" xmlns:xlink="http://www.w3.org/1999/xlink" viewBox="0 0 1345.57 1541.91"><defs><style>.cls-1{fill:none;}.cls-10,.cls-2,.cls-7{fill:#bfae72;}.cls-2{stroke:#96864e;stroke-width:2px;}.cls-2,.cls-4,.cls-5,.cls-6,.cls-7,.cls-9{stroke-miterlimit:10;}.cls-3,.cls-6{fill:#fff;}.cls-4{stroke:#545454;stroke-width:3px;fill:url(#New_Pattern);}.cls-5,.cls-9{fill:#0a385e;}.cls-5,.cls-7,.cls-9{stroke:#003057;}.cls-5,.cls-7{stroke-width:20px;}.cls-6{stroke:#b3a369;stroke-width:6px;}.cls-8{fill:#003057;}.cls-9{stroke-width:4px;}</style><pattern id="New_Pattern" data-name="New Pattern" width="56.64" height="98.11" patternUnits="userSpaceOnUse" viewBox="0 0 56.64 98.11"><rect class="cls-1" width="56.64" height="98.11"/><polygon class="cls-2" points="56.64 66.56 29.32 82.33 29.32 113.88 56.64 129.66 83.97 113.88 83.96 82.33 56.64 66.56"/><polygon class="cls-2" points="0 66.56 -27.32 82.33 -27.32 113.88 0 129.66 27.32 113.88 27.32 82.33 0 66.56"/><polygon class="cls-2" points="28.32 17.51 1 33.28 1 64.83 28.32 80.6 55.64 64.83 55.64 33.28 28.32 17.51"/><polygon class="cls-2" points="56.64 -31.55 29.32 -15.77 29.32 15.78 56.64 31.55 83.97 15.77 83.96 -15.77 56.64 -31.55"/><polygon class="cls-2" points="0 -31.55 -27.32 -15.77 -27.32 15.78 0 31.55 27.32 15.77 27.32 -15.77 0 -31.55"/></pattern></defs><title>AFROTC Patch Official</title><g id="Badge"><path class="cls-3" d="M1336.05,781.33a621.35,621.35,0,0,1-83.54,312.16C1144.57,1280,942.86,1405.55,711.83,1405.55S279.09,1280,171.15,1093.49a625,625,0,0,1,0-624.32C279.08,282.62,480.8,157.11,711.83,157.11s432.75,125.51,540.68,312.06A621.35,621.35,0,0,1,1336.05,781.33Z" transform="translate(-39.04 -10.37)"/><path class="cls-4" d="M1153.38,340.12,270.61,1222.89a624.51,624.51,0,0,1-99.47-753.72C279.07,282.62,480.79,157.11,711.82,157.11,884.28,157.11,1040.41,227.05,1153.38,340.12Z" transform="translate(-39.04 -10.37)"/><path class="cls-5" d="M1252.5,469.17C1144.57,282.62,942.85,157.11,711.82,157.11S279.07,282.62,171.14,469.17a625,625,0,0,0,0,624.32C279.08,1280,480.79,1405.55,711.82,1405.55S1144.56,1280,1252.5,1093.49a625,625,0,0,0,0-624.32Zm-113.28,558.92c-85.33,147.46-244.77,246.67-427.4,246.67s-342.07-99.21-427.39-246.67a494.08,494.08,0,0,1,0-493.51C369.75,387.12,529.2,287.9,711.82,287.9s342.08,99.22,427.4,246.68a494.08,494.08,0,0,1,0,493.51Z" transform="translate(-39.04 -10.37)"/><g id="Stars"><polygon class="cls-6" points="1109.99 366.7 1088.41 381.96 1088.75 408.4 1067.57 392.59 1042.53 401.08 1051.02 376.04 1035.21 354.86 1061.64 355.2 1076.9 333.61 1084.75 358.86 1109.99 366.7"/><polygon class="cls-6" points="1253.6 639.63 1227.27 642.06 1214.35 665.12 1203.91 640.84 1177.98 635.67 1197.85 618.24 1194.75 591.99 1217.47 605.5 1241.48 594.43 1235.66 620.22 1253.6 639.63"/><polygon class="cls-6" points="1241.49 947.8 1217.48 936.74 1194.76 950.25 1197.86 924 1177.99 906.57 1203.91 901.4 1214.36 877.12 1227.28 900.18 1253.6 902.6 1235.67 922.02 1241.49 947.8"/><polygon class="cls-6" points="1076.93 1208.63 1061.66 1187.05 1035.23 1187.39 1051.04 1166.2 1042.55 1141.17 1067.59 1149.66 1088.77 1133.85 1088.43 1160.28 1110.02 1175.54 1084.77 1183.39 1076.93 1208.63"/><polygon class="cls-6" points="804 1352.23 801.57 1325.91 778.51 1312.99 802.79 1302.55 807.95 1276.63 825.39 1296.49 851.64 1293.39 838.13 1316.11 849.19 1340.12 823.41 1334.3 804 1352.23"/><polygon class="cls-6" points="495.83 1340.13 506.88 1316.12 493.38 1293.4 519.63 1296.5 537.06 1276.63 542.23 1302.56 566.51 1313 543.45 1325.92 541.03 1352.24 521.61 1334.31 495.83 1340.13"/><polygon class="cls-6" points="235 1175.57 256.58 1160.3 256.24 1133.87 277.42 1149.68 302.46 1141.19 293.97 1166.22 309.78 1187.41 283.35 1187.07 268.09 1208.65 260.24 1183.41 235 1175.57"/><polygon class="cls-6" points="91.39 902.63 117.72 900.21 130.64 877.15 141.08 901.43 167 906.59 147.14 924.03 150.24 950.28 127.52 936.77 103.51 947.83 109.33 922.05 91.39 902.63"/><polygon class="cls-6" points="103.5 594.47 127.5 605.52 150.23 592.01 147.13 618.27 167 635.7 141.07 640.87 130.63 665.15 117.71 642.09 91.39 639.67 109.32 620.25 103.5 594.47"/><polygon class="cls-6" points="268.06 333.64 283.32 355.22 309.76 354.88 293.95 376.06 302.44 401.1 277.4 392.61 256.22 408.42 256.56 381.99 234.97 366.73 260.22 358.88 268.06 333.64"/><polygon class="cls-6" points="540.99 190.03 543.42 216.35 566.48 229.28 542.2 239.72 537.03 265.64 519.6 245.78 493.35 248.88 506.86 226.16 495.8 202.15 521.58 207.97 540.99 190.03"/><polygon class="cls-6" points="849.16 202.13 838.1 226.15 851.61 248.87 825.36 245.77 807.93 265.64 802.76 239.71 778.48 229.27 801.54 216.35 803.96 190.03 823.38 207.96 849.16 202.13"/></g><path class="cls-7" d="M1252.51,1093.49l118.43,68.38c-131.58,227.41-377.48,380.41-659.11,380.41s-527.54-153-659.12-380.41l118.44-68.38C279.09,1280,480.8,1405.55,711.83,1405.55S1144.57,1280,1252.51,1093.49Z" transform="translate(-39.04 -10.37)"/><path class="cls-7" d="M171.15,469.17,52.71,400.79C184.29,173.37,430.19,20.37,711.83,20.37s527.53,153,659.11,380.42l-118.43,68.38C1144.58,282.62,942.86,157.11,711.83,157.11S279.08,282.62,171.15,469.17Z" transform="translate(-39.04 -10.37)"/><path class="cls-8" d="M111.65,1202.83l75.11-35.13,14,18.26L147,1249.07l-11.66-15.24,10.93-11.49-9.13-11.93-13.82,7.71Zm38.14.64,6.63,8.67,25.45-26.43Z" transform="translate(-39.04 -10.37)"/><path class="cls-8" d="M159.45,1263.3,219,1208.1l30.54,33-11.88,11-17.45-18.84L209.71,1243l16,17.25-12,11.11-16-17.25-25.18,23.33Z" transform="translate(-39.04 -10.37)"/><path class="cls-8" d="M204.69,1310.86l54-60.41,21.28,19q8.22,7.35,9.05,14.88T283,1300.17a36.59,36.59,0,0,1-7.18,6.46,15.48,15.48,0,0,1-6.66,2.5,18,18,0,0,1-7.14-.75h-.29q2.63,2.35,2.49,6.75a14,14,0,0,1-2.18,7.46l-12,14.84q-5.29,6.64-4.37,8.61l-.7.79-15.38-13.74a9.89,9.89,0,0,1,1.22-3,51.22,51.22,0,0,1,4.12-5l6.05-6.76q4.32-4.85,5.44-8.19a5.73,5.73,0,0,0-1.51-6.11l-4.83-4.33-21.22,23.76Zm45.25-22.16,4.84,4.32a6.3,6.3,0,0,0,5.36,1.76q2.88-.46,7.14-5.22,2.57-2.88,2.47-5.58a8.71,8.71,0,0,0-1.83-5,36.26,36.26,0,0,0-4.81-5Z" transform="translate(-39.04 -10.37)"/><path class="cls-8" d="M273.21,1339.72l21-28.8q8-10.47,17.08-10.62t18.21,6.53a33.38,33.38,0,0,1,9,9.52,19.8,19.8,0,0,1,2.88,11.79q-.39,6.45-5.36,13.26l-21,28.8a44.19,44.19,0,0,1-7.91,7.81,19.94,19.94,0,0,1-8.16,3.71,18.7,18.7,0,0,1-9.21-.84,39.59,39.59,0,0,1-10.76-5.83,33.44,33.44,0,0,1-8.48-8.47,19.33,19.33,0,0,1-3.21-8.8,20.69,20.69,0,0,1,1.2-8.89A43.86,43.86,0,0,1,273.21,1339.72Zm37.55-18.9-1.2,1.28-21.13,29a14.57,14.57,0,0,0-3,7,5.62,5.62,0,0,0,2.46,5.45,5.27,5.27,0,0,0,5.79.73q2.87-1.41,6.15-5.93l20.61-28.24,1-1.41q4.36-6.42-.93-10.27Q315.79,1315.35,310.76,1320.82Z" transform="translate(-39.04 -10.37)"/><path class="cls-8" d="M330.15,1407l33.07-55.74-12.93-7.67,8.26-13.92,42.54,25.23-8.26,13.93L379.54,1361l-33.06,55.74Z" transform="translate(-39.04 -10.37)"/><path class="cls-8" d="M419.59,1418.86l17.22,8.11-5.1,10.83q-4.72,10-14.29,11.34a32.56,32.56,0,0,1-18.68-3,39.22,39.22,0,0,1-9.76-6.26,19.07,19.07,0,0,1-5.23-7.47,18.78,18.78,0,0,1-.82-9,37,37,0,0,1,3.39-10.73l14.93-31.68Q406,1371,414,1367.14t20.93,2.22q11.35,5.36,15,13.47t-1.43,18.86l-.63,1.34-2.26,4.82-17.42-8.21,2.27-4.81c1.48-3.15,2.1-5.73,1.84-7.74a5.11,5.11,0,0,0-3-4.24l-.19-.09a8.55,8.55,0,0,0-5.34-.6c-1.53.41-2.94,2-4.21,4.66l-17.44,37q-3,6.36,2.88,9.11t9.74-4.21l1.67-3.06Z" transform="translate(-39.04 -10.37)"/><path class="cls-8" d="M479,1476.77l23-77.66,20.22,6,1.29.27,1.52.45q10,3,14.63,7.25t5.54,8.58a19.63,19.63,0,0,1,.18,7.75c-.47,2.32-.82,4-1,5.14L533.56,1471q-2.1,7.08-6.16,10.75a16.63,16.63,0,0,1-9.68,4.25,33.61,33.61,0,0,1-12.85-1.55Zm22.39-8.54q6.06,1.8,9.26,1.31t5.22-5.82l9.46-31.9a25.65,25.65,0,0,0,.82-6.3,5.13,5.13,0,0,0-2.33-3.72,25.22,25.22,0,0,0-7.68-3.32Z" transform="translate(-39.04 -10.37)"/><path class="cls-8" d="M549.21,1496.31l15.55-79.71,42.65,8.32-3.1,15.89-24-4.67-2.88,14.75,23.3,4.54-3.1,15.89-23.3-4.54L571,1484.06l25.41,5-3.1,15.89Z" transform="translate(-39.04 -10.37)"/><path class="cls-8" d="M626.65,1509.25l6.61-64.47-15-1.53,1.65-16.11,49.2,5-1.65,16.11-15.37-1.58-6.6,64.47Z" transform="translate(-39.04 -10.37)"/><path class="cls-8" d="M670.18,1513.5l19.06-80.7,23,.39,16.16,81.28-19.2-.32-2.21-15.7-15-.25-2.53,15.62Zm24.17-29.5,10.91.18-4.93-36.37Z" transform="translate(-39.04 -10.37)"/><path class="cls-8" d="M776.36,1479.55l19-1.55,1,11.93q.9,11-6.74,17a32.52,32.52,0,0,1-17.68,6.74,38.91,38.91,0,0,1-11.58-.57,17.65,17.65,0,0,1-13.43-11.23,37.07,37.07,0,0,1-2.4-11l-2.84-34.9q-.92-11.1,4.1-18.43T765,1429q12.5-1,19.7,4.21t8.17,17.06l.12,1.47.43,5.31-19.19,1.56-.43-5.31q-.42-5.19-2.26-7.62a5.12,5.12,0,0,0-4.73-2.18l-.21,0a8.58,8.58,0,0,0-4.93,2.15c-1.12,1.11-1.57,3.16-1.32,6.14l3.32,40.78q.57,7,7,6.47t6.34-8.51l-.07-3.48Z" transform="translate(-39.04 -10.37)"/><path class="cls-8" d="M819.07,1506.75l-14.6-79.89,18.94-3.46,5.61,30.71,12.81-2.34-5.61-30.71,18.73-3.42,14.59,79.88L850.82,1501l-6.08-33.26L831.93,1470l6.07,33.26Z" transform="translate(-39.04 -10.37)"/><path class="cls-8" d="M892.19,1492.67l-23.78-77.43,25.61-7.87,23.37,42.86.4-.13-4.46-48.66,25.4-7.8,23.79,77.43-17.25,5.29-16.87-61.23-.2.06,5.73,64.65L920.37,1484l-31.09-56.87-.2.06,20.25,60.2Z" transform="translate(-39.04 -10.37)"/><path class="cls-8" d="M984.15,1462.16l-32.43-74.45,39.83-17.36,6.47,14.84-22.39,9.75,6,13.78,21.75-9.48,6.47,14.84-21.75,9.48,7,16.15,23.74-10.34,6.46,14.84Z" transform="translate(-39.04 -10.37)"/><path class="cls-8" d="M1044.37,1435l-39.28-70.85,17.21-9.53,34.62,32.65.37-.2-23.55-38.8,15.86-8.79,39.27,70.84-17.2,9.54-35-32.48-.08.29,23.41,38.63Z" transform="translate(-39.04 -10.37)"/><path class="cls-8" d="M1117.79,1391.52l-36.66-53.45-12.39,8.5-9.16-13.35,40.79-28,9.16,13.35-12.74,8.74,36.65,53.45Z" transform="translate(-39.04 -10.37)"/><path class="cls-8" d="M1202.25,1325.82l-36.94-40.26-12.08,11.09-8.41-9.17q6.33-5.81,8.53-12a13.06,13.06,0,0,0-1-11.54l8.94-8.2,53.59,58.4Z" transform="translate(-39.04 -10.37)"/><path class="cls-8" d="M1214.19,1246.63a13,13,0,0,1,1.39-5.79,23.37,23.37,0,0,1,4.09-6.18,17.43,17.43,0,0,1,7.72-5q4.41-1.41,10.35.61t13,8.44q7.17,7.17,10,13a17.55,17.55,0,0,1,1.57,11.8q-1.32,5.94-7.15,12.68a29.14,29.14,0,0,1-7,5.72,19.38,19.38,0,0,1-8.09,2.47,21.4,21.4,0,0,1-9.23-1.38,36.7,36.7,0,0,1-10.26-6.23l-21.34-19.42a65.07,65.07,0,0,1-9-9.9,21.17,21.17,0,0,1-3.84-12.23q-.2-7.2,6.91-15,7.83-8.13,15.64-9.36t15.82,6.05l-11.61,12.76q-2.76-2.52-5.18-2.54A5.34,5.34,0,0,0,1204,1229a5.85,5.85,0,0,0-1.52,4.5,7.53,7.53,0,0,0,2.79,5Zm31.15,20.3q4.31-4.71-4.32-12.56l-3.94-3.59q-3.78-3.43-6.6-4.15c-1.87-.47-3.63.19-5.26,2a5.38,5.38,0,0,0-1.58,3.65,6.85,6.85,0,0,0,1.71,3.92,49.38,49.38,0,0,0,5.38,5.49,32.6,32.6,0,0,1,2.93,3q4.56,3.93,7.14,4.19A5.25,5.25,0,0,0,1245.34,1266.93Z" transform="translate(-39.04 -10.37)"/><path class="cls-8" d="M1251.74,1200.08a16,16,0,0,1,.7-6.69,21.08,21.08,0,0,1,3.46-6.83,18,18,0,0,1,11.51-7.13q7.1-1.28,16,4.38c2.17,1.38,4.13,2.73,5.86,4a44,44,0,0,1,10.49,10.56,20.6,20.6,0,0,1,3.65,9.77,19.42,19.42,0,0,1-1.27,8.57,35.56,35.56,0,0,1-4.28,7.71,32.12,32.12,0,0,1-7.45,7.29,19.45,19.45,0,0,1-8.24,3.28,20.16,20.16,0,0,1-8.77-.73,29,29,0,0,1-8.93-4.64,12.18,12.18,0,0,0-1.76-1.6l10.38-13.7q5.53,4.13,8.7,4.63a5,5,0,0,0,5.1-2,4.74,4.74,0,0,0,.93-4.12,10.52,10.52,0,0,0-2.69-4.53,44.6,44.6,0,0,0-5.66-5l-2.77-2.1q-9.16-6.95-13.39-2.14a7.52,7.52,0,0,0-1.82,4.58c0,1.43.81,2.92,2.35,4.49l-9.58,12.65-34.09-28.27,25.28-33.37,11.52,8.72-16.88,22.28Z" transform="translate(-39.04 -10.37)"/><path class="cls-8" d="M243,328.3l-45.93-45.72-10.6,10.65L175,281.81l34.9-35.06,11.48,11.42-10.9,10.95,45.93,45.73Z" transform="translate(-39.04 -10.37)"/><path class="cls-8" d="M261.61,277.64l-22.74-27.46q-8.16-10.35-6.08-19.17t10.82-16a33.53,33.53,0,0,1,11.44-6.36,19.9,19.9,0,0,1,12.14.11q6.15,2,11.53,8.47l22.73,27.45a44.15,44.15,0,0,1,5.62,9.6,19.82,19.82,0,0,1,1.59,8.81,18.5,18.5,0,0,1-3.09,8.72,39.42,39.42,0,0,1-8.3,9A33.45,33.45,0,0,1,287,286.9a19.41,19.41,0,0,1-9.33.94,20.63,20.63,0,0,1-8.31-3.35A43.82,43.82,0,0,1,261.61,277.64Zm-9.06-41,.95,1.47,22.87,27.62a14.47,14.47,0,0,0,6,4.6,5.63,5.63,0,0,0,5.88-1,5.29,5.29,0,0,0,2.14-5.44c-.44-2.07-1.85-4.55-4.23-7.42l-22.3-26.93-1.11-1.34q-5.14-5.79-10.18-1.63Q248.49,230.38,252.55,236.6Z" transform="translate(-39.04 -10.37)"/><path class="cls-8" d="M354.59,227.61l-.17.12q1.31,9.79-8.68,16.49l-3.07,2.06a18.45,18.45,0,0,1-14,1.26q-7.56-2.13-13.88-11.55l-20.2-29.63a33,33,0,0,1-5.08-11.64,18.45,18.45,0,0,1,1.62-11.92q2.87-6,10.85-11.43a36.64,36.64,0,0,1,12.81-5.84A17.46,17.46,0,0,1,326,166.82q5.34,2.52,10,8.86l3.91,5.83-15.76,10.57-4-6Q317.3,182.33,315,182a6.63,6.63,0,0,0-4.7,1.32,7.08,7.08,0,0,0-3,3.75,6.9,6.9,0,0,0,.53,4.24l1,2.3,22.92,34.15a6.54,6.54,0,0,0,4.42,3.1,7.21,7.21,0,0,0,5-1q3.67-2.46,3.57-5.22c-.06-1.84-1.15-4.32-3.24-7.44l-3.62-5.39-5.65,3.79-8.11-12.08,21.46-14.4,24.54,36.56-10.69,7.17Z" transform="translate(-39.04 -10.37)"/><path class="cls-8" d="M383.67,217.53,345.14,146l38.25-20.62,7.68,14.25-21.49,11.59,7.13,13.23,20.89-11.26,7.68,14.25-20.89,11.26,8.36,15.5L415.54,182l7.68,14.25Z" transform="translate(-39.04 -10.37)"/><path class="cls-8" d="M448.05,185l-25.36-59.64-13.83,5.88-6.34-14.9L448,96.93l6.34,14.9-14.22,6,25.36,59.64Z" transform="translate(-39.04 -10.37)"/><path class="cls-8" d="M491.5,167.09,467.13,89.62l18.36-5.78,9.37,29.78,12.42-3.9-9.36-29.78,18.16-5.72,24.37,77.47-18.16,5.71-10.15-32.24-12.42,3.91,10.14,32.24Z" transform="translate(-39.04 -10.37)"/><path class="cls-8" d="M555.34,148,538.61,68.51l42.52-9,3.33,15.85-23.89,5,3.1,14.7,23.22-4.89,3.34,15.85L567,111l3.63,17.23L596,122.88l3.34,15.84Z" transform="translate(-39.04 -10.37)"/><path class="cls-8" d="M613.41,136.33l-8.95-80.51,28.35-3.15q11-1.22,17.12,3.19t7.83,15a36.9,36.9,0,0,1,0,9.66,15.48,15.48,0,0,1-2.58,6.62A18,18,0,0,1,649.86,92l-.18.23q3.51-.39,6.69,2.65a14.17,14.17,0,0,1,4.1,6.6l3,18.87q1.41,8.4,3.5,9l.11,1.05-20.49,2.28a10.17,10.17,0,0,1-1.41-2.9,53.37,53.37,0,0,1-.95-6.39l-1-9q-.72-6.45-2.47-9.51a5.71,5.71,0,0,0-5.55-3l-6.45.72,3.52,31.66Zm13.71-48.49,6.45-.71a6.29,6.29,0,0,0,4.88-2.83q1.59-2.46.88-8.8a8.1,8.1,0,0,0-2.5-5.56,8.68,8.68,0,0,0-4.94-2,37,37,0,0,0-7,.22Z" transform="translate(-39.04 -10.37)"/><path class="cls-8" d="M722.81,129,714,47.34,732.4,48.4l2.28,57.13.23-.2,11.17-56.14,18.32,1.07,3.82,57.21.22-.19L777.88,51l17.9,1-18.16,80.08-21.38-1.24-2.5-57.14h-.21l-9.66,56.43Z" transform="translate(-39.04 -10.37)"/><path class="cls-8" d="M802.32,135.31l13.87-80L859,62.72l-2.76,16L832.18,74.5l-2.57,14.81,23.39,4-2.77,16-23.38-4-3,17.35L849.35,127l-2.76,16Z" transform="translate(-39.04 -10.37)"/><path class="cls-8" d="M899.53,128.25l16.64,5.46-2,6.06q-1.21,3.72,0,6.16a7.2,7.2,0,0,0,4.11,3.56,6.7,6.7,0,0,0,5.76-.33,8.91,8.91,0,0,0,3.65-5.18q1.38-4.22-.55-7.06t-8.36-10.71q-6.45-7.86-8.69-14.28t.43-14.76a8.91,8.91,0,0,0,.84-1.89q4.36-9.45,11.28-12.59T940,82.63a31.49,31.49,0,0,1,8.59,4.26,21.88,21.88,0,0,1,6.07,6.54,20.43,20.43,0,0,1,2.76,9,28.44,28.44,0,0,1-1.56,11.2l-.54,1.65-16.64-5.45c1.33-4,1.71-7.08,1.16-9.11a5.7,5.7,0,0,0-4-4.09,6.65,6.65,0,0,0-4.24-.11c-1.29.43-2.43,1.77-3.43,4A8.23,8.23,0,0,0,929,108a105.28,105.28,0,0,0,8,10.07,50.67,50.67,0,0,1,8.37,12.48,19.61,19.61,0,0,1,.68,13c-.18.79-.51,1.91-1,3.34q-4.23,12.89-12.49,16.44t-19,0q-9.57-3.15-14.68-10.23t-2.12-16.21Z" transform="translate(-39.04 -10.37)"/><path class="cls-8" d="M959.32,177.45l21.62-79.22,16.71,7.7-18.72,54,.28-.1,30.9-48.18,16.67,7.67L1009.44,174l.28-.11L1039,125l16.28,7.5-46.14,67.93-19.45-9,18.54-54.11-.2-.09-29.59,49Z" transform="translate(-39.04 -10.37)"/><path class="cls-8" d="M1025.71,209.11,1083,149.18l19.64,12-27.22,78.27-16.39-10,6-14.66-12.84-7.83-10.09,12.19Zm35.78-13.2,9.32,5.68L1085,167.73Z" transform="translate(-39.04 -10.37)"/><path class="cls-8" d="M1084.67,245.93l48.92-64.56,22.74,17.23q8.79,6.65,10.22,14.1T1161.91,229a36.67,36.67,0,0,1-6.64,7,15.54,15.54,0,0,1-6.43,3,18,18,0,0,1-7.18-.17l-.29,0c1.87,1.42,2.88,3.6,3,6.52a14.15,14.15,0,0,1-1.56,7.62L1132,268.76c-3.16,4.71-4.39,7.69-3.66,8.94l-.64.84-16.43-12.45a9.89,9.89,0,0,1,1-3.07,51.66,51.66,0,0,1,3.71-5.29l5.48-7.23q3.91-5.17,4.76-8.6a5.74,5.74,0,0,0-2-6L1119,232l-19.24,25.38ZM1128,220.2l5.17,3.91a6.29,6.29,0,0,0,5.49,1.32q2.83-.69,6.69-5.78,2.33-3.08,2-5.76a8.61,8.61,0,0,0-2.23-4.83,36.36,36.36,0,0,0-5.19-4.63Z" transform="translate(-39.04 -10.37)"/><path class="cls-8" d="M1137.38,286.16l56.17-58.36,19.3,18.58-26.14,41.22.31.3,40.38-27.52,19.15,18.43-56.17,58.36-13-12.5,45.36-44.47-.15-.15-53.76,36.39-10.22-9.84,34.64-54.78-.15-.14-42.81,46.91Z" transform="translate(-39.04 -10.37)"/></g><g id="Zoom"><polygon class="cls-9" points="666.84 840.07 830.89 772.53 762.92 936.92 756.59 943.17 747.08 943.44 749.87 891.04 742.58 895.05 720.95 896.21 709.17 918.17 697.83 929.38 704.71 901.94 708.1 897.28 705.12 898.09 706.04 895.03 700.98 898.79 673.77 905.54 684.78 894.53 707.19 882.62 708.5 860.3 712.3 853.59 659.68 856.19 659.9 847 666.84 840.07"/><polygon class="cls-9" points="704.82 642.56 868.87 575.03 800.9 739.41 794.57 745.66 785.06 745.93 787.85 693.53 780.56 697.55 758.93 698.71 747.15 720.67 735.81 731.87 742.69 704.43 746.09 699.78 743.1 700.59 744.02 697.53 738.96 701.29 711.76 708.04 722.77 697.03 745.17 685.11 746.48 662.8 750.29 656.08 697.66 658.68 697.89 649.5 704.82 642.56"/><polygon class="cls-9" points="483.87 863.51 647.91 795.98 579.95 960.37 573.62 966.62 564.1 966.89 566.89 914.49 559.61 918.5 537.98 919.66 526.2 941.62 514.86 952.83 521.74 925.39 525.13 920.73 522.15 921.54 523.07 918.48 518.01 922.24 490.8 928.99 501.81 917.98 524.22 906.07 525.52 883.75 529.33 877.03 476.71 879.64 476.93 870.45 483.87 863.51"/><polygon class="cls-9" points="506.88 680.72 670.93 613.18 602.97 777.57 596.63 783.82 587.12 784.09 589.91 731.69 582.62 735.7 560.99 736.86 549.21 758.83 537.87 770.03 544.75 742.59 548.15 737.94 545.16 738.74 546.08 735.69 541.02 739.44 513.82 746.19 524.83 735.18 547.23 723.27 548.54 700.96 552.35 694.24 499.73 696.84 499.95 687.65 506.88 680.72"/></g><g id="GT_Logo" data-name="GT Logo"><path class="cls-8" d="M825.11,1057.14V1102h25l2.45-12.78h7.8c-4.63,19.4-26,32.27-51.13,30.28-23.83-1.82-49.4-15.32-49.31-40.52.09-27.83,25-43.87,48.32-44.87,15.59-.63,33.08,5.35,45.68,15.77.73.64.91.73,1,.82s.18.09.81.63l.73.55H884.3v-49.77H855.38V1016c-11.78-6.89-30.45-13.5-51.94-13.41a93.53,93.53,0,0,0-65.71,27.55c-14.05,14.32-21.58,31.73-21.4,49.22.19,17.13,8,33.54,21.76,46.14,17.58,16,43.33,24.38,68.71,22.3,19.76-1.63,37.34-6,50.21-12.42v4.89h30.64v-50.94H895V1146H880.31v28.91H948.2V1146H933.52v-56.75h31l2.26,12.78h25.11v-44.87Z" transform="translate(-39.04 -10.37)"/><path class="cls-10" d="M830,1097.12h16l2.44-12.78h17.77l-.45,2.81c-3.54,23.47-28,39.52-56.93,37.34-26-2-53.93-17.13-53.84-45.41.09-27.1,22.93-48.49,53-49.76,16.76-.73,35.53,5.71,49,16.86a7.91,7.91,0,0,1,.64.54,3.52,3.52,0,0,1,.45.36h21.12V1007h-19v17.4l-4.08-2.08c-10.43-7.25-29.55-14.87-52.21-14.87h-.37a88.27,88.27,0,0,0-62.27,26.11c-13,13.32-20.21,29.55-19.94,45.68.18,15.77,7.34,30.91,20.12,42.51,16.59,15.14,40.88,23,65,21,21-1.72,39.43-6.61,51.94-13.78l3.72-2.17-.09,8.43h20.67v-50.94h17.22v66.53H885.2v19h58v-19H928.53v-66.53H968.6l2.26,12.78h16V1062H830v35.08Z" transform="translate(-39.04 -10.37)"/></g><g id="AF_Logo" data-name="AF Logo"><polyline id="Mask" class="cls-10" points="616.75 436.44 617.63 422.76 608.68 395.37 580.84 452.87 575.08 463.83 511.03 510.01 504.53 510.13 438.18 462.27 434.4 453 406.73 395.39 398.68 427.45 396.57 440.65 433.33 516.39 462.84 531.43 462.4 565.96 499.17 591.51 530.06 586.73 561.08 563.89 544.4 551.85 555.23 536.2 580.67 517.86 600.71 477.9 624.9 427.93 624.9 427.93"/><path class="cls-8" d="M485.3,504.33q-17.93-12.93-35.83-25.87a4.31,4.31,0,0,1-1.3-1.54q-9.15-18.8-18.24-37.63l-.33-.73.1-.13q5.63,4.08,11.27,8.14L485.9,479l29.3,21.15q14.14,10.22,28.3,20.4c.44.32.66.58.47,1.18q-3.26,9.81-6.46,19.64c0,.13-.12.26-.22.48l-6.48-4.67Z" transform="translate(-39.04 -10.37)"/><path class="cls-8" d="M432.57,432.79q6.35-13,12.64-26.09c.12-.26.27-.51.49-.92l27.82,57.47-.15.14-10.1-7.29q-15.16-10.94-30.34-21.86A.94.94,0,0,1,432.57,432.79Z" transform="translate(-39.04 -10.37)"/><path class="cls-8" d="M499,546.51q-12.74-9.22-25.49-18.43a3.7,3.7,0,0,1-1.16-1.3q-9.27-19-18.47-38.13l-.17-.39.15-.1,81.64,58.9c-.49,0-.77.07-1.05.07q-16.73,0-33.45,0A3.26,3.26,0,0,1,499,546.51Z" transform="translate(-39.04 -10.37)"/><path class="cls-8" d="M568.63,596.8l.4.32-22.35,16.13L524.3,597.11l2.59-1.9q9.45-6.81,18.89-13.65a1.26,1.26,0,0,1,1.78,0Q558.06,589.2,568.63,596.8Z" transform="translate(-39.04 -10.37)"/><path class="cls-8" d="M639.54,488.16a.86.86,0,0,1,.14.13q-1.47,3.07-3,6.15c-5.16,10.65-10.3,21.31-15.5,31.94a5.19,5.19,0,0,1-1.58,1.87q-12.69,9.21-25.44,18.34a2.7,2.7,0,0,1-1.47.52q-17.09,0-34.17,0c-.12,0-.24,0-.65-.07Q598.92,517.47,639.54,488.16Z" transform="translate(-39.04 -10.37)"/><path class="cls-8" d="M619.94,463.36l-.13-.1c9.25-19.11,18.5-38.22,27.84-57.5.35.7.64,1.24.9,1.8q6.13,12.68,12.28,25.35c.23.49.32.8-.23,1.19Q640.55,448.53,620.51,463Z" transform="translate(-39.04 -10.37)"/><path class="cls-8" d="M663.87,438.32,661,444.37q-7.82,16.14-15.61,32.28a5,5,0,0,1-1.65,2q-17.93,12.92-35.83,25.85l-51.44,37.11c-.1.07-.21.12-.41.24-.26-.73-.5-1.42-.73-2.11-1.93-5.89-3.84-11.79-5.8-17.67a1.21,1.21,0,0,1,.52-1.63q17.36-12.46,34.67-25l47.26-34.1,30.85-22.26C663.06,438.85,663.36,438.66,663.87,438.32Z" transform="translate(-39.04 -10.37)"/><path class="cls-8" d="M600.05,574.28c.07.05.13.12.27.25l-27.19,19.63c-.61-1.83-1.19-3.56-1.75-5.3-2.18-6.63-4.34-13.27-6.53-19.9a1.07,1.07,0,0,1,.46-1.48q6.08-4.32,12.09-8.73a.8.8,0,0,1,1.11,0Z" transform="translate(-39.04 -10.37)"/><path class="cls-8" d="M546.7,548.83a13.41,13.41,0,1,1-13.52,13.36A13.41,13.41,0,0,1,546.7,548.83Z" transform="translate(-39.04 -10.37)"/><path class="cls-8" d="M528.6,568.63q-4.15,12.6-8.28,25.22l-.14.28L493,574.52l1-.78c6.86-5,13.73-9.9,20.58-14.88a1,1,0,0,1,1.48,0q6,4.39,12.08,8.73C528.56,567.88,528.78,568.1,528.6,568.63Z" transform="translate(-39.04 -10.37)"/></g></svg>